<svg width="48" height="48" viewBox="0 0 48 48" fill="none" xmlns="http://www.w3.org/2000/svg">
<path fill-rule="evenodd" clip-rule="evenodd" d="M25.2896 10.5275C24.4962 10.0498 23.5038 10.0498 22.7104 10.5275L21.6778 11.1493C18.9153 12.8127 15.8141 13.8334 12.6037 14.1359L11.9531 14.1972C11.6963 14.2214 11.5 14.437 11.5 14.695V17.9827C11.5 22.9978 13.5361 27.798 17.1418 31.2837L23.6525 37.5777C23.8463 37.7651 24.1537 37.7651 24.3475 37.5777L30.8582 31.2837C34.4639 27.798 36.5 22.9978 36.5 17.9827V14.695C36.5 14.437 36.3037 14.2214 36.0469 14.1972L35.3963 14.1359C32.1859 13.8334 29.0847 12.8127 26.3222 11.1493L25.2896 10.5275ZM21.1628 7.95745C22.9083 6.90644 25.0917 6.90643 26.8372 7.95745L27.8698 8.57924C30.2468 10.0105 32.9153 10.8889 35.6777 11.1491L36.3283 11.2104C38.1262 11.3798 39.5 12.8892 39.5 14.695V17.9827C39.5 23.8111 37.1338 29.3897 32.9434 33.4406L26.4326 39.7346C25.076 41.0461 22.924 41.0461 21.5674 39.7346L15.0566 33.4406C10.8662 29.3897 8.5 23.8111 8.5 17.9827V14.695C8.5 12.8892 9.87385 11.3798 11.6717 11.2104L12.3223 11.1491C15.0847 10.8889 17.7532 10.0106 20.1302 8.57924L21.1628 7.95745Z" fill="white"/>
</svg>
